<?xml version="1.0" encoding="UTF-8"?>
<!DOCTYPE svg PUBLIC "-//W3C//DTD SVG 1.1//EN" "http://www.w3.org/Graphics/SVG/1.1/DTD/svg11.dtd">
<svg xmlns="http://www.w3.org/2000/svg" version="1.1" width="512px" height="512px" style="shape-rendering:geometricPrecision; text-rendering:geometricPrecision; image-rendering:optimizeQuality; fill-rule:evenodd; clip-rule:evenodd" xmlns:xlink="http://www.w3.org/1999/xlink">
<g><path style="opacity:0.998" fill="#6fbaff" d="M 307.5,-0.5 C 308.833,-0.5 310.167,-0.5 311.5,-0.5C 251.431,104.636 191.098,209.636 130.5,314.5C 128.735,315.461 126.735,315.795 124.5,315.5C 124.062,315.565 123.728,315.399 123.5,315C 183.755,210.928 243.755,106.761 303.5,2.5C 304.833,1.5 306.167,0.5 307.5,-0.5 Z"/></g>
<g><path style="opacity:0.998" fill="#72b7ff" d="M 311.5,-0.5 C 313.833,-0.5 316.167,-0.5 318.5,-0.5C 318.649,0.551975 318.483,1.55198 318,2.5C 257.65,105.867 197.816,209.534 138.5,313.5C 135.946,314.388 133.279,314.721 130.5,314.5C 191.098,209.636 251.431,104.636 311.5,-0.5 Z"/></g>
<g><path style="opacity:0.998" fill="#75b3ff" d="M 318.5,-0.5 C 319.167,-0.5 319.833,-0.5 320.5,-0.5C 322.5,0.833333 324.5,2.16667 326.5,3.5C 324.376,4.03118 322.876,5.36451 322,7.5C 263.488,109.194 204.988,210.861 146.5,312.5C 143.873,313.092 141.206,313.425 138.5,313.5C 197.816,209.534 257.65,105.867 318,2.5C 318.483,1.55198 318.649,0.551975 318.5,-0.5 Z"/></g>
<g><path style="opacity:0.994" fill="#6cbdff" d="M 303.5,2.5 C 243.755,106.761 183.755,210.928 123.5,315C 123.728,315.399 124.062,315.565 124.5,315.5C 121.373,316.581 118.04,317.247 114.5,317.5C 167.511,223.98 221.178,130.813 275.5,38C 275.272,37.6012 274.938,37.4346 274.5,37.5C 282.324,27.1965 290.158,16.8632 298,6.5C 299.451,4.53594 301.284,3.20261 303.5,2.5 Z"/></g>
<g><path style="opacity:0.997" fill="#78b0ff" d="M 326.5,3.5 C 328.633,5.09051 330.299,7.09051 331.5,9.5C 330.504,9.41423 329.671,9.74756 329,10.5C 271.224,110.392 213.724,210.392 156.5,310.5C 153.239,311.378 149.906,312.044 146.5,312.5C 204.988,210.861 263.488,109.194 322,7.5C 322.876,5.36451 324.376,4.03118 326.5,3.5 Z"/></g>
<g><path style="opacity:0.998" fill="#7badff" d="M 331.5,9.5 C 332.363,11.4214 333.029,13.4214 333.5,15.5C 330.109,19.9277 326.942,24.5944 324,29.5C 270.408,123.024 216.574,216.357 162.5,309.5C 160.735,310.461 158.735,310.795 156.5,310.5C 213.724,210.392 271.224,110.392 329,10.5C 329.671,9.74756 330.504,9.41423 331.5,9.5 Z"/></g>
<g><path style="opacity:0.993" fill="#7eaaff" d="M 333.5,15.5 C 333.808,20.3708 332.975,25.0374 331,29.5C 326.59,38.9063 322.09,48.2396 317.5,57.5C 315.926,57.9371 314.759,58.9371 314,60.5C 266.626,142.748 219.126,224.915 171.5,307C 172.056,307.383 172.389,307.883 172.5,308.5C 169.193,309.051 165.86,309.384 162.5,309.5C 216.574,216.357 270.408,123.024 324,29.5C 326.942,24.5944 330.109,19.9277 333.5,15.5 Z"/></g>
<g><path style="opacity:0.992" fill="#69c0ff" d="M 274.5,37.5 C 274.938,37.4346 275.272,37.6012 275.5,38C 221.178,130.813 167.511,223.98 114.5,317.5C 112.565,318.15 110.565,318.483 108.5,318.5C 156.914,233.337 205.58,148.337 254.5,63.5C 260.791,54.5428 267.457,45.8761 274.5,37.5 Z"/></g>
<g><path style="opacity:0.986" fill="#81a6ff" d="M 317.5,57.5 C 305.403,84.0229 293.07,110.356 280.5,136.5C 247.21,192.331 214.21,248.998 181.5,306.5C 178.655,307.344 175.655,308.01 172.5,308.5C 172.389,307.883 172.056,307.383 171.5,307C 219.126,224.915 266.626,142.748 314,60.5C 314.759,58.9371 315.926,57.9371 317.5,57.5 Z"/></g>
<g><path style="opacity:0.992" fill="#66c4ff" d="M 254.5,63.5 C 205.58,148.337 156.914,233.337 108.5,318.5C 104.186,319.275 99.8526,319.941 95.5,320.5C 133.58,253.337 171.914,186.337 210.5,119.5C 224.687,100.462 239.353,81.7949 254.5,63.5 Z"/></g>
<g><path style="opacity:0.985" fill="#60c9ff" d="M 210.5,119.5 C 171.914,186.337 133.58,253.337 95.5,320.5C 90.6437,321.161 86.3104,320.161 82.5,317.5C 105.845,275.314 129.845,233.481 154.5,192C 154.272,191.601 153.938,191.435 153.5,191.5C 172.029,167.097 191.029,143.097 210.5,119.5 Z"/></g>
<g><path style="opacity:0.982" fill="#84a3ff" d="M 280.5,136.5 C 274.203,151.081 267.537,165.414 260.5,179.5C 260.19,178.262 259.69,178.262 259,179.5C 234.81,221.888 210.643,264.221 186.5,306.5C 184.833,306.5 183.167,306.5 181.5,306.5C 214.21,248.998 247.21,192.331 280.5,136.5 Z"/></g>
<g><path style="opacity:0.99" fill="#bd66ff" d="M 416.5,154.5 C 417.686,156.194 417.519,157.861 416,159.5C 377,226.833 338,294.167 299,361.5C 298.308,362.437 298.475,363.103 299.5,363.5C 283.64,385.232 267.307,406.565 250.5,427.5C 249.475,427.103 249.308,426.437 250,425.5C 301.776,336.275 353.276,246.942 404.5,157.5C 408.5,156.5 412.5,155.5 416.5,154.5 Z"/></g>
<g><path style="opacity:0.986" fill="#c360ff" d="M 416.5,154.5 C 421.36,154.46 425.693,155.793 429.5,158.5C 405.422,201.095 381.089,243.595 356.5,286C 356.728,286.399 357.062,286.565 357.5,286.5C 338.893,312.713 319.56,338.379 299.5,363.5C 298.475,363.103 298.308,362.437 299,361.5C 338,294.167 377,226.833 416,159.5C 417.519,157.861 417.686,156.194 416.5,154.5 Z"/></g>
<g><path style="opacity:0.994" fill="#ba69ff" d="M 404.5,157.5 C 353.276,246.942 301.776,336.275 250,425.5C 249.308,426.437 249.475,427.103 250.5,427.5C 244.892,436.381 238.559,444.714 231.5,452.5C 231.062,452.565 230.728,452.399 230.5,452C 287.489,354.52 343.822,256.687 399.5,158.5C 401.117,157.962 402.784,157.629 404.5,157.5 Z"/></g>
<g><path style="opacity:0.993" fill="#b76dff" d="M 399.5,158.5 C 343.822,256.687 287.489,354.52 230.5,452C 230.728,452.399 231.062,452.565 231.5,452.5C 219.018,469.441 206.518,486.441 194,503.5C 191.914,506.094 189.414,508.094 186.5,509.5C 185.624,509.631 184.957,509.298 184.5,508.5C 250.889,393.132 317.222,277.799 383.5,162.5C 388.628,160.802 393.961,159.469 399.5,158.5 Z"/></g>
<g><path style="opacity:0.965" fill="#c95aff" d="M 429.5,158.5 C 438.561,165.97 440.394,174.97 435,185.5C 409.303,219.352 383.47,253.018 357.5,286.5C 357.062,286.565 356.728,286.399 356.5,286C 381.089,243.595 405.422,201.095 429.5,158.5 Z"/></g>
<g><path style="opacity:0.998" fill="#b173ff" d="M 383.5,162.5 C 317.222,277.799 250.889,393.132 184.5,508.5C 184.957,509.298 185.624,509.631 186.5,509.5C 185.5,510.167 184.5,510.833 183.5,511.5C 179.167,511.5 174.833,511.5 170.5,511.5C 170.5,511.167 170.5,510.833 170.5,510.5C 174.366,502.439 178.532,494.439 183,486.5C 244.688,379.109 306.855,272.109 369.5,165.5C 373.889,163.754 378.556,162.754 383.5,162.5 Z"/></g>
<g><path style="opacity:0.998" fill="#ab79ff" d="M 369.5,165.5 C 306.855,272.109 244.688,379.109 183,486.5C 178.532,494.439 174.366,502.439 170.5,510.5C 165.983,509.25 162.65,506.583 160.5,502.5C 224.109,391.449 288.109,280.616 352.5,170C 351.906,169.536 351.239,169.369 350.5,169.5C 356.614,167.676 362.947,166.343 369.5,165.5 Z"/></g>
<g><path style="opacity:0.993" fill="#a57fff" d="M 350.5,169.5 C 351.239,169.369 351.906,169.536 352.5,170C 288.109,280.616 224.109,391.449 160.5,502.5C 157.819,497.932 156.986,492.932 158,487.5C 166.275,469.288 174.775,451.288 183.5,433.5C 234.588,346.999 284.921,259.999 334.5,172.5C 339.782,171.244 345.115,170.244 350.5,169.5 Z"/></g>
<g><path style="opacity:0.983" fill="#a086ff" d="M 334.5,172.5 C 284.921,259.999 234.588,346.999 183.5,433.5C 203.324,389.856 223.657,346.523 244.5,303.5C 269.404,261.366 294.071,219.033 318.5,176.5C 323.651,174.879 328.984,173.546 334.5,172.5 Z"/></g>
<g><path style="opacity:0.994" fill="#998cff" d="M 318.5,176.5 C 294.071,219.033 269.404,261.366 244.5,303.5C 245.086,301.16 246.086,298.993 247.5,297C 244.2,297.046 240.866,297.212 237.5,297.5C 236.624,297.631 235.957,297.298 235.5,296.5C 257.707,257.918 280.04,219.418 302.5,181C 301.906,180.536 301.239,180.369 300.5,180.5C 306.245,178.549 312.245,177.215 318.5,176.5 Z"/></g>
<g><path style="opacity:0.991" fill="#879fff" d="M 260.5,179.5 C 259.453,182.596 258.12,185.596 256.5,188.5C 257,188.833 257.5,189.167 258,189.5C 261.402,188.274 264.902,187.607 268.5,187.5C 246.167,226.167 223.833,264.833 201.5,303.5C 196.455,304.396 191.455,305.396 186.5,306.5C 210.643,264.221 234.81,221.888 259,179.5C 259.69,178.262 260.19,178.262 260.5,179.5 Z"/></g>
<g><path style="opacity:0.993" fill="#9492ff" d="M 300.5,180.5 C 301.239,180.369 301.906,180.536 302.5,181C 280.04,219.418 257.707,257.918 235.5,296.5C 235.957,297.298 236.624,297.631 237.5,297.5C 232.358,298.859 227.025,299.859 221.5,300.5C 220.314,298.806 220.481,297.139 222,295.5C 243.776,258.275 265.276,220.942 286.5,183.5C 290.921,181.898 295.588,180.898 300.5,180.5 Z"/></g>
<g><path style="opacity:0.993" fill="#8d99ff" d="M 286.5,183.5 C 265.276,220.942 243.776,258.275 222,295.5C 220.481,297.139 220.314,298.806 221.5,300.5C 214.864,301.686 208.198,302.686 201.5,303.5C 223.833,264.833 246.167,226.167 268.5,187.5C 274.249,185.548 280.249,184.214 286.5,183.5 Z"/></g>
<g><path style="opacity:0.967" fill="#5ad0ff" d="M 153.5,191.5 C 153.938,191.435 154.272,191.601 154.5,192C 129.845,233.481 105.845,275.314 82.5,317.5C 80.2843,316.797 78.451,315.464 77,313.5C 74.5095,309.686 73.0095,305.52 72.5,301C 73.0095,296.48 74.5095,292.314 77,288.5C 102.745,256.267 128.245,223.934 153.5,191.5 Z"/></g>
</svg>
